<?xml version="1.0"?>
<svg width="375" height="423" xmlns="http://www.w3.org/2000/svg" xmlns:svg="http://www.w3.org/2000/svg" xmlns:xlink="http://www.w3.org/1999/xlink">
 <defs>
  <linearGradient id="c" x1="0%" x2="99.58%" y1="36.139%" y2="63.745%">
   <stop offset="0%" stop-color="#33D35E"/>
   <stop offset="100%" stop-color="#2AB6D9"/>
  </linearGradient>
  <path d="m42.46,162.61l70.744,70.76a100,100 0 0 0 70.719,29.298l11.03,0a100,100 0 0 1 70.719,29.298l75.718,75.736a100,100 0 0 0 70.719,29.298l221.671,0c27.507,0 49.805,-22.299 49.805,-49.805a49.805,49.805 0 0 0 -14.583,-35.213l-52.835,-52.848c-7.359,-7.36 -7.357,-19.294 0.003,-26.653a18.846,18.846 0 0 1 13.325,-5.518c10.408,0 18.846,-8.438 18.846,-18.846c0,-4.997 -1.985,-9.79 -5.518,-13.325l-108.076,-108.101a100,100 0 0 0 -70.72,-29.298l-112.014,0a97.948,97.948 0 0 1 -69.267,-28.696a97.948,97.948 0 0 0 -69.269,-28.697l-128.537,0c-19.435,0 -35.19,15.755 -35.19,35.19a35.19,35.19 0 0 0 10.304,24.88l17.596,17.599c9.715,9.717 9.713,25.47 -0.004,35.185a24.88,24.88 0 0 1 -17.59,7.285c-13.742,0 -24.88,11.14 -24.88,24.88a24.88,24.88 0 0 0 7.284,17.59l0,0.001z" id="b"/>
 </defs>
 <g class="layer">
  <title>Layer 1</title>
  <g fill="none" fill-rule="evenodd" id="svg_1" transform="rotate(-8.48333 376.38 67)">
   <use fill="#2D314D" id="svg_3" transform="rotate(-12.2244 271.701 89.1677)" x="-87.679721" xlink:href="#b" y="-109.332317"/>
   <path d="m164.139734,8.942434l70.744,70.76a100,100 0 0 0 70.719,29.298l11.03,0a100,100 0 0 1 70.719,29.298l75.718,75.736a100,100 0 0 0 70.719,29.298l221.671,0c27.507,0 49.805,-22.299 49.805,-49.805a49.805,49.805 0 0 0 -14.583,-35.213l-52.835,-52.848c-7.359,-7.36 -7.357,-19.294 0.003,-26.653a18.846,18.846 0 0 1 13.325,-5.518c10.408,0 18.846,-8.438 18.846,-18.846c0,-4.997 -1.985,-9.79 -5.518,-13.325l-108.076,-108.101a100,100 0 0 0 -70.72,-29.298l-112.014,0a97.948,97.948 0 0 1 -69.267,-28.696a97.948,97.948 0 0 0 -69.269,-28.697l-128.537,0c-19.435,0 -35.19,15.755 -35.19,35.19a35.19,35.19 0 0 0 10.304,24.88l17.595,17.599c9.715,9.717 9.713,25.47 -0.004,35.185a24.88,24.88 0 0 1 -17.59,7.285c-13.742,0 -24.88,11.14 -24.88,24.88a24.88,24.88 0 0 0 7.284,17.59l0.001,0.001z" fill="url(#c)" id="svg_4" transform="rotate(-12.2244 481.06 44.8324)"/>
  </g>
 </g>
</svg>